<svg xmlns="http://www.w3.org/2000/svg" viewBox="0 0 30.969 76.369"><path fill="#f9f9f9" d="M23.379 38.095L2.471 9.016C.287 5.978-.033 3.86 1.376 1.815 2.833-.3 4.423.138 6.68 3.279c7.4 10.301 14.802 20.599 22.199 30.904 2.144 2.987 2.161 4.825.07 7.764A53189.614 53189.614 0 0 1 6.324 73.705c-.344.483-.678.999-1.073 1.388-1.334 1.311-2.674 1.228-3.821-.378-1.147-1.606-1.237-3.521-.239-5.311.708-1.27 1.589-2.356 2.408-3.504 6.079-8.525 12.162-17.045 18.241-25.57.47-.658.923-1.338 1.539-2.235z"/></svg>