<svg xmlns="http://www.w3.org/2000/svg" viewBox="0 0 30.969 76.369"><path fill="#f9f9f9" d="M7.625 38.435l20.958 29.042c2.19 3.035 2.513 5.152 1.108 7.199-1.453 2.117-3.044 1.682-5.306-1.455C16.967 62.934 9.547 52.649 2.132 42.356c-2.149-2.983-2.17-4.822-.084-7.764 7.52-10.604 15.044-21.2 22.569-31.797.343-.483.676-1.001 1.071-1.39C27.02.091 28.36.173 29.509 1.776c1.15 1.604 1.244 3.519.249 5.311-.706 1.271-1.585 2.359-2.402 3.508-6.064 8.536-12.132 17.067-18.196 25.602-.469.659-.921 1.34-1.535 2.238z"/></svg>