<svg xmlns="http://www.w3.org/2000/svg" viewBox="0 0 17 17"><path d="M7.225 0c.287.066.575.125.859.198 2.864.737 5.097 3.451 4.849 6.851-.213 2.909-2.6 5.45-5.593 5.855-3.49.473-6.753-1.977-7.259-5.449-.012-.079-.053-.153-.081-.23V5.78c.026-.078.063-.155.077-.235C.561 2.846 2.106 1.076 4.721.248 5.04.146 5.37.082 5.695 0h1.53zm4.034 6.472a4.77 4.77 0 0 0-4.781-4.778 4.766 4.766 0 0 0-4.786 4.769c-.005 2.664 2.147 4.82 4.799 4.808a4.79 4.79 0 0 0 4.768-4.799zM15.64 17c-.52-.535-1.036-1.076-1.562-1.605-1.035-1.041-2.076-2.077-3.12-3.121l1.357-1.278c.734.734 1.5 1.505 2.271 2.27.802.795 1.609 1.583 2.414 2.375v.085l-1.275 1.275L15.64 17z" fill="#767F8C"/></svg>